<svg xmlns="http://www.w3.org/2000/svg" width="512" height="512" viewBox="0 0 512 512"><path fill="#444" d="M262.678 92.382c-91.27 0-165.844 74.574-165.844 165.844S171.408 424.07 262.678 424.07s165.844-74.574 165.844-165.844S353.948 92.382 262.678 92.382zM62.33 140.244c0-6.68-1.112-14.47-1.112-21.148 0-5.565-1.113-11.13-1.113-17.808V94.61c-4.452-13.356-6.678 0-6.678 0l1.113 67.895c0 1.113-1.113 2.226-2.226 2.226s-2.226-1.11-2.226-2.224L48.975 94.61c-3.34-15.582-5.565 0-5.565 0v67.895c0 1.113-1.113 2.226-2.226 2.226s-2.226-1.11-2.226-2.224L37.845 94.61c0-5.565-3.34-6.678-3.34-6.678-3.338 1.113-3.338 6.678-3.338 6.678l-2.226 67.895c0 1.113 0 1.113-1.11 1.113h-1.114c-1.113 0-2.226-1.113-2.226-2.226l2.225-67.895c-2.226-12.243-5.565 0-5.565 0l-3.34 32.28-4.45 51.2c0 2.225-1.114 5.564 0 8.904 0 2.228 1.112 3.34 1.112 5.567 1.113 2.226 4.452 3.34 6.678 5.565l5.565 4.453c5.565 4.452 4.452 8.905 4.452 8.905L24.49 421.846c0 2.226 5.564 3.34 13.355 3.34s13.356-1.114 13.356-3.34l-4.45-211.478c1.113-7.792 7.79-11.13 7.79-11.13l4.453-2.227c6.678-3.337 7.79-10.016 7.79-10.016v-8.905c0-5.566 0-11.13-1.112-16.697-2.225-7.792-3.34-14.47-3.34-21.148zm436.314 5.565c-7.79-53.428-24.487-58.994-24.487-58.994-11.13-5.565-13.356 0-13.356 0-3.337 5.565-2.224 16.695-2.224 16.695s4.452 25.6 5.565 50.088c1.114 26.712 0 35.617 0 47.86l-1.112 37.844c4.452 6.68 5.565 11.13 5.565 11.13v1.114c-1.113 1.113-2.226 3.34-2.226 5.565 0 3.34 1.113 5.566 3.34 6.68l-5.566 159.165c0 2.226 5.566 3.34 13.357 3.34s13.356-1.114 13.356-3.34l-2.226-159.165c1.113-1.112 1.113-1.112 1.113-2.225 1.112-1.113 1.112-3.34 1.112-4.452 0-2.226-1.113-4.452-2.226-5.565 1.113-10.018 8.904-12.244 8.904-12.244 2.226-1.113 2.226-4.452 2.226-4.452 2.226-55.652-1.113-89.043-1.113-89.043z"/></svg> 