<svg xmlns="http://www.w3.org/2000/svg" width="512" height="512" viewBox="0 0 512 512"><path fill="#444" d="M473.6 88.576H38.4c-20.992 0-38.4 16.896-38.4 38.4v215.04c0 20.992 17.408 38.4 38.4 38.4h435.2c21.504 0 38.4-17.408 38.4-38.4v-215.04c0-21.504-16.896-38.4-38.4-38.4zM351.232 330.752H41.472V135.168h309.76v195.584zm69.12 0h-47.104v-30.72h47.104v30.72zm38.4-90.112v11.264H396.8V240.64h61.952zM396.8 229.376V217.6h61.952v11.776H396.8zm61.952 36.864v11.776H396.8V266.24h61.952zm16.384 64.512H427.52v-30.72h47.616v30.72zm0-134.144h-98.304v-61.44h98.304v61.44z"/></svg>